Coordinates
version=1
nRows=5
nColumns=40
inDegrees=yes

Units are S.I. units (second, meters, Newtons, ...)
If the header above contains a line with 'inDegrees', this indicates whether rotational values are in degrees (yes) or radians (no).

endheader
time	pelvis_tilt	pelvis_list	pelvis_rotation	pelvis_tx	pelvis_ty	pelvis_tz	hip_flexion_r	hip_adduction_r	hip_rotation_r	knee_angle_r	knee_angle_r_beta	ankle_angle_r	subtalar_angle_r	mtp_angle_r	hip_flexion_l	hip_adduction_l	hip_rotation_l	knee_angle_l	knee_angle_l_beta	ankle_angle_l	subtalar_angle_l	mtp_angle_l	lumbar_extension	lumbar_bending	lumbar_rotation	arm_flex_r	arm_add_r	arm_rot_r	elbow_flex_r	pro_sup_r	wrist_flex_r	wrist_dev_r	arm_flex_l	arm_add_l	arm_rot_l	elbow_flex_l	pro_sup_l	wrist_flex_l	wrist_dev_l
      9.20000000	     18.69985058	      2.58789226	   -177.92302490	      0.32597405	      0.53783465	     -0.92730436	     90.03889232	    -47.90128622	     11.43630149	     77.00999922	      1.34407804	      3.55366656	      0.00000000	      0.00000000	     96.86203789	    -47.02750676	     16.94492783	     78.47443435	      1.36963726	      4.41998238	      0.00000000	      0.00000000	    -44.89049447	     -1.39787058	      1.20084330	     57.78996459	    -13.00861595	     67.65173116	     11.49370201	     83.74387237	      0.00000000	      0.00000000	     59.15177957	    -14.06955264	     77.81359622	     13.92330981	     57.89105104	      0.00000000	      0.00000000
      9.20500000	     18.77274787	      2.59280657	   -177.90550376	      0.32588795	      0.53908855	     -0.92718502	     89.81872603	    -47.93345993	     11.19264672	     76.77320503	      1.33994521	      3.49090947	      0.00000000	      0.00000000	     96.64853050	    -46.99754095	     16.73340760	     78.25735956	      1.36584859	      4.37975566	      0.00000000	      0.00000000	    -44.77529462	     -1.40344248	      1.18953757	     57.63984417	    -12.92986490	     67.08026994	     11.41216214	     83.91416404	      0.00000000	      0.00000000	     59.16493321	    -14.17769830	     78.31261660	     14.01064607	     58.44473194	      0.00000000	      0.00000000
      9.21000000	     18.79552233	      2.59717833	   -177.90174163	      0.32577082	      0.54041288	     -0.92707592	     89.53973023	    -47.95129612	     10.92849247	     76.51640769	      1.33546325	      3.45414618	      0.00000000	      0.00000000	     96.40200566	    -47.01332488	     16.51328468	     78.05026398	      1.36223409	      4.33834000	      0.00000000	      0.00000000	    -44.69693161	     -1.41256773	      1.21910497	     57.50977639	    -12.90175432	     66.65085825	     11.40034389	     83.68098085	      0.00000000	      0.00000000	     59.18370952	    -14.16460718	     78.93532432	     13.95005496	     58.49429517	      0.00000000	      0.00000000
      9.21500000	     18.94994043	      2.50799598	   -177.95336347	      0.32572834	      0.54147960	     -0.92712044	     89.56064629	    -47.87583389	     10.91680892	     76.29468537	      1.33159346	      3.35857423	      0.00000000	      0.00000000	     96.16671341	    -47.04875159	     16.17526433	     77.83567447	      1.35848879	      4.33792102	      0.00000000	      0.00000000	    -44.47421602	     -1.52868106	      1.22088033	     57.26818519	    -12.83608457	     65.25869216	     11.39504616	     84.50608705	      0.00000000	      0.00000000	     58.98123063	    -14.07802257	     78.33281145	     13.87196606	     58.15429572	      0.00000000	      0.00000000
      9.22000000	     18.89712943	      2.58375196	   -177.92608321	      0.32554757	      0.54294802	     -0.92694613	     89.09375312	    -47.93438787	     10.49618612	     76.04515336	      1.32723831	      3.35502189	      0.00000000	      0.00000000	     95.92693067	    -47.04082605	     16.05928690	     77.63394094	      1.35496788	      4.26870521	      0.00000000	      0.00000000	    -44.48613843	     -1.43929040	      1.24125927	     57.26322069	    -12.83091090	     65.74786811	     11.36820934	     84.38417779	      0.00000000	      0.00000000	     58.99285934	    -14.17350522	     78.85904307	     13.93144268	     58.45101079	      0.00000000	      0.00000000
